<svg xmlns="http://www.w3.org/2000/svg" viewBox="0 0 64 64" role="img" aria-label="QA icon">
  <defs>
    <linearGradient id="g" x1="0%" y1="0%" x2="100%" y2="100%">
      <stop offset="0%" stop-color="#8f9ed1"/>
      <stop offset="100%" stop-color="#6ea1ff"/>
    </linearGradient>
  </defs>
  <rect x="4" y="4" width="56" height="56" rx="14" fill="url(#g)"/>
  <path fill="#ffffff" d="M21 21h10c5 0 9 3.7 9 9s-4 9-9.5 9H25v5h-4v-23Zm4 14h5c3 0 5-2 5-5s-2-5-5-5h-5v10Zm17.5 3.5 3.5-3.5 2.8 2.8-3.5 3.5c1 1.6 1.2 3.5.3 5.3-1 2-3.2 3.4-5.7 3.4-3.5 0-6.4-2.6-6.4-6 0-3.3 2.9-6 6.4-6 1.3 0 2.6.4 3.6 1Z"/>
</svg>

